# xmcd
#
# Track frame offsets:
#  150
#  15895
#  31592
#  53302
#  75385
#  96605
#  126990
#  157602
#  167857
#  205407
#  231967
#  244602
#
# Disc length: 3474 seconds
#
# Revision: 0
# Processed by: cddbd v1.5.1PL2 Copyright (c) Steve Scherf et al.
# Submitted via: Collectorz.com_Music_Collector 6.11
#
DISCID=820d900c
DTITLE=Paulo Meyer and The Burning Bush - Blues
DYEAR=1900
DGENRE=Blues Rock
TTITLE0=Café Paraty
TTITLE1=Another Mule (Has Been Kicking In My Stall)
TTITLE2=(Sitting Oon) The Dock Of The Bay
TTITLE3=Terno Azul
TTITLE4=Blowing In The Wind
TTITLE5=Like A Rolling Stone
TTITLE6=Traveling Blues
TTITLE7=Another Man Done Gone
TTITLE8=Blues Da Ilha Do Catimbau
TTITLE9=Jazz Blues
TTITLE10=Paraaty Cunha
TTITLE11=You Get Me High
EXTD=
EXTT0=
EXTT1=
EXTT2=
EXTT3=
EXTT4=
EXTT5=
EXTT6=
EXTT7=
EXTT8=
EXTT9=
EXTT10=
EXTT11=
PLAYORDER=
